<svg width="1279" height="339" viewBox="0 0 1279 339" fill="none" xmlns="http://www.w3.org/2000/svg">
<path d="M1278.5 183H1240.26V249H1278.5V183Z" fill="#FBEFDA"/>
<path d="M357.477 182C1073.35 182 547.616 33 1244.51 33" stroke="#FBEFDA" stroke-width="65" stroke-linecap="square"/>
<path d="M34.5312 179C1567.45 204.5 66.5988 126 1244.51 126" stroke="#FBEFDA" stroke-width="65" stroke-linecap="square"/>
<path d="M775.188 208.757C2042.3 226 225.913 207.769 1243.33 216.691M741.848 180H116.328" stroke="#FBEFDA" stroke-width="65" stroke-linecap="round"/>
<path d="M893.033 126H767.531V247H893.033V126Z" fill="#FBEFDA"/>
<path d="M950 72H830V268H950V72Z" fill="#FBEFDA"/>
<path d="M34 184.5C1292.78 160.034 402.247 306 1243.44 306" stroke="#FBEFDA" stroke-width="65" stroke-linecap="square"/>
<path d="M1 174.5C1 174.5 195.5 169.5 433 169.5C509.335 169.5 735.5 152.5 735.5 152.5" stroke="#FBEFDA" stroke-width="63"/>
</svg>
