<svg width="1148" height="326" viewBox="0 0 1148 326" fill="none" xmlns="http://www.w3.org/2000/svg">
<path d="M289 173C1004.87 173 418.616 33 1115.51 33" stroke="#FBEFDA" stroke-width="65" stroke-linecap="round"/>
<path d="M-94.4688 173C1438.45 198.5 -57.5 139 1115.51 120" stroke="#FBEFDA" stroke-width="65" stroke-linecap="round"/>
<path d="M646.188 200.757C1913.3 218 96.9131 199.769 1114.33 208.691M612.848 172H-12.6719" stroke="#FBEFDA" stroke-width="65" stroke-linecap="round"/>
<path d="M764 119H675V240H764V119Z" fill="#FBEFDA"/>
<path d="M821 65H701V261H821V65Z" fill="#FBEFDA"/>
<path d="M-95 171.501C1241.5 155.001 273.247 293.001 1114.44 293.001" stroke="#FBEFDA" stroke-width="65" stroke-linecap="round"/>
<path d="M-128 168C-128 168 76.7234 162.318 326.707 162.318C407.054 162.318 661 136 661 136" stroke="#FBEFDA" stroke-width="63"/>
<path d="M-128 186C-128 186 71.6637 180.318 315.469 180.318C393.831 180.318 641.5 154 641.5 154" stroke="#FBEFDA" stroke-width="63"/>
</svg>
