<svg width="1277" height="326" viewBox="0 0 1277 326" fill="none" xmlns="http://www.w3.org/2000/svg">
<path d="M418 173C1133.87 173 547.616 33 1244.51 33" stroke="#FBEFDA" stroke-width="65" stroke-linecap="round"/>
<path d="M34.5312 173C1567.45 198.5 71.5 139 1244.51 120" stroke="#FBEFDA" stroke-width="65" stroke-linecap="round"/>
<path d="M775.188 200.757C2042.3 218 225.913 199.769 1243.33 208.691M741.848 172H116.328" stroke="#FBEFDA" stroke-width="65" stroke-linecap="round"/>
<path d="M893 119H804V240H893V119Z" fill="#FBEFDA"/>
<path d="M950 65H830V261H950V65Z" fill="#FBEFDA"/>
<path d="M34 171.501C1370.5 155.001 402.247 293.001 1243.44 293.001" stroke="#FBEFDA" stroke-width="65" stroke-linecap="round"/>
<path d="M1 168C1 168 205.723 162.318 455.707 162.318C536.054 162.318 790 136 790 136" stroke="#FBEFDA" stroke-width="63"/>
<path d="M1 186C1 186 200.664 180.318 444.469 180.318C522.831 180.318 770.5 154 770.5 154" stroke="#FBEFDA" stroke-width="63"/>
</svg>
